<?xml version="1.0" encoding="UTF-8" standalone="no"?><!-- Generator: Gravit.io --><svg xmlns="http://www.w3.org/2000/svg" xmlns:xlink="http://www.w3.org/1999/xlink" style="isolation:isolate" viewBox="0 0 500.339 400.7" width="500.339pt" height="400.7pt"><defs><clipPath id="_clipPath_U457IVmiUNr0xz3s3CwWENeLzUrJaQWG"><rect width="500.339" height="400.7"/></clipPath></defs><g clip-path="url(#_clipPath_U457IVmiUNr0xz3s3CwWENeLzUrJaQWG)"><rect x="0" y="345.019" width="163.049" height="1.128" transform="matrix(1,0,0,1,0,0)" fill="rgb(63,61,86)"/><path d=" M 495.81 294.484 L 90.241 294.484 C 87.741 294.481 85.715 292.455 85.713 289.955 L 85.713 56.476 C 85.715 53.976 87.741 51.95 90.241 51.947 L 495.81 51.947 C 498.31 51.95 500.336 53.976 500.339 56.476 L 500.339 289.955 C 500.336 292.455 498.31 294.481 495.81 294.484 Z  M 90.241 52.953 C 88.297 52.956 86.721 54.531 86.719 56.476 L 86.719 289.955 C 86.721 291.899 88.297 293.475 90.241 293.477 L 495.81 293.477 C 497.755 293.475 499.33 291.899 499.333 289.955 L 499.333 56.476 C 499.33 54.531 497.755 52.956 495.81 52.953 L 90.241 52.953 Z " fill="rgb(63,61,86)"/><path d=" M 77.542 244.723 C 76.431 244.725 75.395 244.163 74.791 243.231 L 70.756 236.996 C 69.777 235.479 70.21 233.456 71.725 232.473 L 123.688 198.838 C 125.205 197.859 127.229 198.293 128.211 199.807 L 132.247 206.042 C 132.718 206.77 132.881 207.656 132.699 208.504 C 132.518 209.352 132.006 210.094 131.278 210.565 L 79.314 244.199 C 78.787 244.542 78.171 244.724 77.542 244.723 L 77.542 244.723 Z " fill="rgb(39,111,194)"/><path d=" M 79.162 243.783 L 100.884 231.654 C 102.291 230.868 102.833 229.115 102.115 227.672 L 97.083 217.562 C 96.68 216.753 95.937 216.167 95.056 215.965 C 94.176 215.762 93.251 215.965 92.536 216.516 L 71.842 232.478 C 70.445 233.385 70.045 235.251 70.947 236.652 L 74.983 242.888 C 75.891 244.288 77.761 244.688 79.162 243.783 L 79.162 243.783 Z " fill="rgb(204,204,204)"/><circle vector-effect="non-scaling-stroke" cx="100.74040466773177" cy="62.13153916841027" r="3.5223133024814786" fill="rgb(39,111,194)"/><circle vector-effect="non-scaling-stroke" cx="110.804156960536" cy="62.13153916841027" r="3.5223133024814786" fill="rgb(39,111,194)"/><circle vector-effect="non-scaling-stroke" cx="120.86790925334024" cy="62.13153916841027" r="3.5223133024814786" fill="rgb(39,111,194)"/><rect x="86.216" y="70.565" width="413.62" height="2.516" transform="matrix(1,0,0,1,0,0)" fill="rgb(63,61,86)"/><path d=" M 471.476 219.053 L 343.352 219.053 C 340.991 219.05 339.078 217.137 339.075 214.776 L 339.075 135.776 C 339.078 133.415 340.991 131.501 343.352 131.498 L 471.476 131.498 C 473.837 131.501 475.75 133.415 475.753 135.776 L 475.753 214.776 C 475.75 217.137 473.837 219.05 471.476 219.053 Z " fill="rgb(230,230,230)"/><path d=" M 349.085 128.072 C 347.001 128.074 345.313 129.762 345.311 131.846 L 345.311 210.846 C 345.313 212.929 347.001 214.618 349.085 214.62 L 477.209 214.62 C 479.292 214.618 480.98 212.929 480.983 210.846 L 480.983 131.846 C 480.98 129.762 479.292 128.074 477.209 128.072 L 349.085 128.072 Z " fill="rgb(39,111,194)"/><path d=" M 136.926 127.421 C 135.397 127.421 134.158 128.66 134.158 130.188 C 134.158 131.717 135.397 132.956 136.926 132.956 L 286.373 132.956 C 287.901 132.956 289.14 131.717 289.14 130.188 C 289.14 128.66 287.901 127.421 286.373 127.421 L 136.926 127.421 Z " fill="rgb(39,111,194)"/><path d=" M 136.926 145.033 C 135.397 145.033 134.158 146.272 134.158 147.8 C 134.158 149.329 135.397 150.568 136.926 150.568 C 144.551 148.424 194.377 148.434 286.373 150.568 C 287.901 150.568 289.14 149.329 289.14 147.8 C 289.14 146.272 287.901 145.033 286.373 145.033 L 136.926 145.033 Z " fill="rgb(39,111,194)"/><path d=" M 136.926 162.644 C 135.397 162.644 134.158 163.883 134.158 165.412 C 134.158 166.94 135.397 168.179 136.926 168.179 L 286.373 168.179 C 287.901 168.179 289.14 166.94 289.14 165.412 C 289.14 163.883 287.901 162.644 286.373 162.644 L 136.926 162.644 Z " fill="rgb(39,111,194)"/><path d=" M 136.926 180.256 C 135.397 180.256 134.158 181.495 134.158 183.023 C 134.158 184.552 135.397 185.791 136.926 185.791 L 286.373 185.791 C 287.901 185.791 289.14 184.552 289.14 183.023 C 289.14 181.495 287.901 180.256 286.373 180.256 L 136.926 180.256 Z " fill="rgb(230,230,230)"/><path d=" M 136.926 197.867 C 135.397 197.867 134.158 199.106 134.158 200.635 C 134.158 202.163 135.397 203.402 136.926 203.402 L 286.373 203.402 C 287.901 203.402 289.14 202.163 289.14 200.635 C 289.14 199.106 287.901 197.867 286.373 197.867 L 136.926 197.867 Z " fill="rgb(230,230,230)"/><path d=" M 136.926 215.479 C 135.397 215.479 134.158 216.718 134.158 218.246 C 134.158 219.775 135.397 221.014 136.926 221.014 L 286.373 221.014 C 287.901 221.014 289.14 219.775 289.14 218.246 C 289.14 216.718 287.901 215.479 286.373 215.479 L 136.926 215.479 Z " fill="rgb(230,230,230)"/><circle vector-effect="non-scaling-stroke" cx="77.04858067757162" cy="177.88202031710728" r="26.930178457947857" fill="rgb(39,111,194)"/><path d=" M 72.805 345.618 L 65.378 345.618 C 63.573 345.615 62.11 344.152 62.108 342.347 L 62.108 280.447 C 62.11 278.642 63.573 277.179 65.378 277.177 L 72.805 277.177 C 74.611 277.179 76.074 278.642 76.076 280.447 L 76.076 342.347 C 76.074 344.152 74.611 345.615 72.805 345.618 L 72.805 345.618 Z " fill="rgb(47,46,65)"/><path d=" M 87.495 345.618 L 80.068 345.618 C 78.262 345.615 76.799 344.152 76.797 342.347 L 76.797 280.447 C 76.799 278.642 78.262 277.179 80.068 277.177 L 87.495 277.177 C 89.3 277.179 90.763 278.642 90.765 280.447 L 90.765 342.347 C 90.763 344.152 89.3 345.615 87.495 345.618 L 87.495 345.618 Z " fill="rgb(47,46,65)"/><path d=" M 93.615 287.473 L 59.87 287.473 C 58.065 287.471 56.601 286.008 56.599 284.202 L 56.599 227.292 C 56.611 217.327 64.687 209.251 74.652 209.239 L 93.615 209.239 C 95.421 209.241 96.884 210.705 96.886 212.51 L 96.886 284.202 C 96.884 286.008 95.421 287.471 93.615 287.473 L 93.615 287.473 Z " fill="rgb(204,204,204)"/><path d=" M 108.208 283.033 C 106.996 283.031 105.883 282.363 105.314 281.293 L 76.298 226.616 C 75.453 225.02 76.06 223.042 77.654 222.194 L 84.214 218.713 C 85.81 217.868 87.788 218.475 88.637 220.068 L 117.653 274.745 C 118.497 276.341 117.89 278.319 116.297 279.168 L 109.736 282.649 C 109.266 282.9 108.741 283.032 108.208 283.033 L 108.208 283.033 Z " fill="rgb(39,111,194)"/><path d=" M 74.21 226.5 L 86.932 249.19 C 87.593 250.66 89.292 251.351 90.792 250.76 L 101.299 246.621 C 102.14 246.29 102.788 245.6 103.066 244.74 C 103.343 243.881 103.222 242.942 102.734 242.182 L 88.621 219.179 C 87.838 217.709 86.013 217.149 84.54 217.926 L 75.463 222.414 C 73.99 223.198 73.429 225.026 74.21 226.5 Z " fill="rgb(204,204,204)"/></g></svg>