<?xml version="1.0" encoding="UTF-8" standalone="no"?><!-- Generator: Gravit.io --><svg xmlns="http://www.w3.org/2000/svg" xmlns:xlink="http://www.w3.org/1999/xlink" style="isolation:isolate" viewBox="0 0 700 550" width="700pt" height="550pt"><defs><clipPath id="_clipPath_wjX7A4avfqtlhSO1jJYh63E6aWKFhARA"><rect width="700" height="550"/></clipPath></defs><g clip-path="url(#_clipPath_wjX7A4avfqtlhSO1jJYh63E6aWKFhARA)"><rect width="700" height="550" style="fill:rgb(18,22,32)"/><path d="M 65.494 61.5 L 632.006 61.5 C 643.317 61.5 652.5 69.902 652.5 80.25 L 652.5 80.25 C 652.5 90.598 643.317 99 632.006 99 L 65.494 99 C 54.183 99 45 90.598 45 80.25 L 45 80.25 C 45 69.902 54.183 61.5 65.494 61.5 Z" style="stroke:none;fill:#FFFFFF;stroke-miterlimit:10;"/><path d="M 54.897 152.5 L 266.103 152.5 C 271.565 152.5 276 156.935 276 162.397 L 276 165.603 C 276 171.065 271.565 175.5 266.103 175.5 L 54.897 175.5 C 49.435 175.5 45 171.065 45 165.603 L 45 162.397 C 45 156.935 49.435 152.5 54.897 152.5 Z" style="stroke:none;fill:#FFFFFF;stroke-miterlimit:10;"/><path d="M 54.702 198.5 L 257.298 198.5 C 262.652 198.5 267 202.848 267 208.202 L 267 211.798 C 267 217.152 262.652 221.5 257.298 221.5 L 54.702 221.5 C 49.348 221.5 45 217.152 45 211.798 L 45 208.202 C 45 202.848 49.348 198.5 54.702 198.5 Z" style="stroke:none;fill:#FFFFFF;stroke-miterlimit:10;"/><path d="M 406.5 245 L 640.5 245 C 647.123 245 652.5 250.153 652.5 256.5 L 652.5 256.5 C 652.5 262.847 647.123 268 640.5 268 L 406.5 268 C 399.877 268 394.5 262.847 394.5 256.5 L 394.5 256.5 C 394.5 250.153 399.877 245 406.5 245 Z" style="stroke:none;fill:#FFFFFF;stroke-miterlimit:10;"/><path d="M 302.104 152.5 L 500.396 152.5 C 505.697 152.5 510 156.803 510 162.104 L 510 165.896 C 510 171.197 505.697 175.5 500.396 175.5 L 302.104 175.5 C 296.803 175.5 292.5 171.197 292.5 165.896 L 292.5 162.104 C 292.5 156.803 296.803 152.5 302.104 152.5 Z" style="stroke:none;fill:#FFFFFF;stroke-miterlimit:10;"/><path d="M 542.5 152.5 L 638.5 152.5 C 644.847 152.5 650 157.653 650 164 L 650 164 C 650 170.347 644.847 175.5 638.5 175.5 L 542.5 175.5 C 536.153 175.5 531 170.347 531 164 L 531 164 C 531 157.653 536.153 152.5 542.5 152.5 Z" style="stroke:none;fill:#276FC2;stroke-miterlimit:10;"/><path d="M 57 244.5 L 364.5 244.5 C 371.123 244.5 376.5 249.653 376.5 256 L 376.5 256 C 376.5 262.347 371.123 267.5 364.5 267.5 L 57 267.5 C 50.377 267.5 45 262.347 45 256 L 45 256 C 45 249.653 50.377 244.5 57 244.5 Z" style="stroke:none;fill:#276FC2;stroke-miterlimit:10;"/><path d="M 301.5 200.5 L 640.5 200.5 C 647.123 200.5 652.5 205.653 652.5 212 L 652.5 212 C 652.5 218.347 647.123 223.5 640.5 223.5 L 301.5 223.5 C 294.877 223.5 289.5 218.347 289.5 212 L 289.5 212 C 289.5 205.653 294.877 200.5 301.5 200.5 Z" style="stroke:none;fill:#276FC2;stroke-miterlimit:10;"/><path d="M 54 303 L 649.5 303 C 651.156 303 652.5 304.344 652.5 306 L 652.5 417 C 652.5 418.656 651.156 420 649.5 420 L 54 420 C 52.344 420 51 418.656 51 417 L 51 306 C 51 304.344 52.344 303 54 303 Z" style="stroke:none;fill:#0F1119;stroke-miterlimit:10;"/><path d="M 122 456 L 238 456 C 239.932 456 241.5 457.568 241.5 459.5 L 241.5 493 C 241.5 494.932 239.932 496.5 238 496.5 L 122 496.5 C 120.068 496.5 118.5 494.932 118.5 493 L 118.5 459.5 C 118.5 457.568 120.068 456 122 456 Z" style="stroke:none;fill:#276FC2;stroke-miterlimit:10;"/><path d="M 287 456 L 403 456 C 404.932 456 406.5 457.568 406.5 459.5 L 406.5 493 C 406.5 494.932 404.932 496.5 403 496.5 L 287 496.5 C 285.068 496.5 283.5 494.932 283.5 493 L 283.5 459.5 C 283.5 457.568 285.068 456 287 456 Z" style="stroke:none;fill:#276FC2;stroke-miterlimit:10;"/><path d="M 455 456 L 571 456 C 572.932 456 574.5 457.568 574.5 459.5 L 574.5 493 C 574.5 494.932 572.932 496.5 571 496.5 L 455 496.5 C 453.068 496.5 451.5 494.932 451.5 493 L 451.5 459.5 C 451.5 457.568 453.068 456 455 456 Z" style="stroke:none;fill:#276FC2;stroke-miterlimit:10;"/></g></svg>